<?xml version="1.0" encoding="UTF-8"?>
<svg id="Layer_2" data-name="Layer 2" xmlns="http://www.w3.org/2000/svg" xmlns:xlink="http://www.w3.org/1999/xlink" viewBox="0 0 592.51 592.51">
  <defs>
    <style>
      .cls-1 {
        fill: #fff;
      }

      .cls-2 {
        fill: url(#linear-gradient);
      }
    </style>
    <linearGradient id="linear-gradient" x1="120.1" y1="138.06" x2="506.62" y2="485.17" gradientUnits="userSpaceOnUse">
      <stop offset="0" stop-color="#206ab8"/>
      <stop offset="1" stop-color="#133f6e"/>
    </linearGradient>
  </defs>
  <g id="Layer_1-2" data-name="Layer 1">
    <circle class="cls-2" cx="296.25" cy="296.25" r="296.25"/>
    <path class="cls-1" d="M350.66,359.63c17.78-35.13,35.65-65.8,59.95-84.74.82-.64,3.52-2.61,5.19-3.9.38-.28.08-.88-.38-.75-17.73,4.75-44.55,27.46-68.09,52.39-37.9,40.15-85.09,90.1-138.86,91.17-.94.02-1.89,0-2.83-.03-1.54-.03-2.28,1.89-1.08,2.86,18.22,14.93,40.85,22.68,38.84,44-.2,2.09-.63,3.96-1.26,5.66-.85,2.31,1.1,4.7,3.55,4.42,51.48-5.82,77.71-57.2,104.97-111.07M195.75,241.52c16.47,15.58,39.08,22.37,61.08,25.31,26.22,3.49,52.96,2.12,79.22-.14,25.57-2.22,51.01-5.8,76.58-8.03,4.24-.38,14.01-1.02,19.51-1.37.49-.03.52-.72.05-.8-29.87-4.46-60.41-3.25-89.74-11.19-19.77-5.36-38.48-17.6-52.74-32.13-15-15.26-26.01-34.28-31.72-54.91-4.07-14.76-5.41-30.26-3.96-45.51l2.12-22.54c.25-2.67-2.61-4.51-4.94-3.18-14.02,8.1-51.87,33.23-78.69,81.71-1.19,2.14-1.73,4.59-1.65,7.03.97,28.64,8.88,50.63,24.87,65.75M180.71,327.89c15.91,5.17,33.01,4.94,49.32,1.96,17.7-3.22,34.75-9.51,51.13-16.83,9.46-4.21,18.75-8.79,27.92-13.6,8.32-4.37,16.36-9.23,24.77-13.44,6.16-3.1,12.48-5.78,18.82-8.41,2.81-1.16,9.27-3.96,13.02-5.88.64-.33.33-1.29-.38-1.18-4.94.77-14.46,2.33-18.04,2.83-27.77,3.84-61.88,6.46-83.39,4.62-29.72-2.55-56.15-10.97-75.2-28.99-13.14-12.43-21.5-29.22-25.54-49.77-.44-2.29-3.6-2.59-4.43-.41-1.76,4.61-3.4,9.35-4.87,14.32-9.42,31.69-11.74,60.41-9.32,86,.24,2.45,1.26,4.78,2.96,6.59,9.78,10.47,20.78,18.11,33.24,22.18M450.37,261.87c-18.17,4.73-32.73,15.37-45.27,30.78-3.43,4.21-6.7,8.55-9.98,12.87-12.15,16.05-21.6,31.89-30.53,49.53-4.43,8.76-16.39,33.7-21.3,42.46-14.1,25.1-19.88,34.42-35.38,51.04-17.06,18.3-33.68,30.09-50.43,35.73-1.24.41-1.4,2.01-.28,2.67,9.32,5.45,21.96,4.29,32.26,3.44,34.08-2.85,56.26-32.82,73.63-59.01,12.13-18.27,23.29-37.17,32.63-57.04,8.93-19,16.65-38.57,26.12-57.33,9.15-18.11,20.4-34.99,35.87-48.34,2.66-2.28,5.39-4.46,8.05-6.74,1.02-.88.03-2.56-1.34-2.44-4.92.42-9.6,1.23-14.05,2.37M339.86,315.57c12.48-14.43,41.91-37.74,52.59-44.09.55-.33.27-1.19-.38-1.12-13.85,1.6-35.52,14.57-51.68,23.58-40.52,22.57-94.17,52.44-142.62,47.86-6.87-.64-13.63-1.98-20.25-4.13-9.23-3-17.64-7.88-25.46-13.99-1.51-1.18-3.69.19-3.24,2.06,7.25,29.96,21.19,54.4,37.22,72.76,1.7,1.93,3.98,3.27,6.49,3.74,5.22.94,10.44,1.4,15.72,1.27,49.47-.99,93.09-47.17,131.6-87.95"/>
  </g>
</svg>