<?xml version="1.0" encoding="UTF-8"?>
<svg id="Layer_2" data-name="Layer 2" xmlns="http://www.w3.org/2000/svg" viewBox="0 0 1427.6 644.66">
  <defs>
    <style>
      .cls-1 {
        fill: #fff;
      }
    </style>
  </defs>
  <g id="Layer_1-2" data-name="Layer 1">
    <path class="cls-1" d="M1064.91,318.95c20.77-41.04,41.64-76.86,70.03-98.99.95-.75,4.11-3.05,6.06-4.55.44-.33.09-1.03-.44-.88-20.71,5.55-52.04,32.08-79.54,61.2-44.27,46.9-99.39,105.25-162.21,106.5-1.1.02-2.2,0-3.31-.04-1.8-.04-2.66,2.2-1.27,3.34,21.28,17.44,47.72,26.5,45.37,51.39-.24,2.44-.73,4.63-1.47,6.61-.99,2.7,1.29,5.49,4.15,5.16,60.13-6.79,90.78-66.82,122.62-129.74M883.96,180.98c19.24,18.2,45.65,26.13,71.35,29.56,30.63,4.08,61.86,2.48,92.54-.17,29.87-2.59,59.58-6.78,89.46-9.38,4.96-.44,16.36-1.19,22.79-1.6.57-.04.61-.84.06-.94-34.89-5.21-70.56-3.8-104.83-13.07-23.1-6.26-44.95-20.56-61.6-37.53-17.52-17.83-30.39-40.05-37.05-64.14-4.76-17.24-6.32-35.35-4.63-53.16l2.48-26.33c.29-3.12-3.05-5.27-5.77-3.71-16.38,9.46-60.59,38.82-91.92,95.44-1.4,2.5-2.02,5.36-1.93,8.21,1.14,33.45,10.37,59.14,29.05,76.81M866.39,281.87c18.58,6.04,38.56,5.77,57.62,2.29,20.67-3.76,40.6-11.11,59.73-19.66,11.05-4.92,21.9-10.26,32.61-15.88,9.71-5.1,19.11-10.78,28.94-15.7,7.2-3.62,14.58-6.76,21.98-9.82,3.29-1.36,10.83-4.63,15.2-6.87.75-.39.39-1.51-.44-1.38-5.77.9-16.89,2.72-21.08,3.31-32.44,4.48-72.29,7.55-97.41,5.4-34.72-2.97-65.59-12.82-87.84-33.86-15.35-14.52-25.12-34.13-29.84-58.13-.51-2.68-4.2-3.03-5.18-.48-2.06,5.38-3.97,10.92-5.69,16.73-11,37.02-13.72,70.56-10.89,100.46.28,2.86,1.47,5.58,3.45,7.69,11.42,12.23,24.27,21.15,38.83,25.91M1181.38,204.76c-21.23,5.53-38.23,17.96-52.88,35.95-4,4.92-7.82,9.99-11.66,15.04-14.19,18.75-25.23,37.26-35.66,57.86-5.18,10.23-19.15,39.37-24.88,49.59-16.47,29.32-23.23,40.21-41.33,59.62-19.92,21.37-39.35,35.14-58.9,41.74-1.45.48-1.63,2.35-.33,3.12,10.89,6.37,25.65,5.01,37.68,4.02,39.81-3.32,65.72-38.34,86-68.93,14.17-21.34,27.21-43.42,38.12-66.63,10.43-22.2,19.44-45.06,30.52-66.96,10.69-21.15,23.83-40.87,41.9-56.46,3.1-2.66,6.3-5.21,9.4-7.88,1.19-1.03.04-2.99-1.56-2.85-5.75.5-11.22,1.43-16.42,2.77M113.55,642.93h-20.16v-78.07h-.28c-11.02,27.89-22.46,53.05-33.77,78.07h-10.87c-10.72-25.03-21.59-50.18-32.02-78.07h-.29v78.07H0v-100.11h24.88c10.3,24.6,26.9,63.79,30.76,76.66h.28c4.72-13.44,22.75-52.05,34.19-76.66h23.45v100.11ZM133.49,591.45c0-28.02,21.17-50.33,49.92-50.33s49.91,22.31,49.91,50.33c0,29.89-19.17,53.21-49.91,53.21s-49.92-23.32-49.92-53.21M211.85,591.45c0-18.43-8.43-36.02-28.44-36.02s-28.46,17.59-28.46,36.02,7.44,38.91,28.46,38.91,28.44-19.74,28.44-38.91M253.24,542.85h20.16v100.11h-20.16v-100.11ZM386.77,642.93h-14.6c-19.15-23.03-38.32-45.9-57.2-71.79h-.29v71.79h-16.16v-100.09h14.74c19.15,22.86,38.17,45.61,57.05,71.35h.28v-71.35h16.18v100.09ZM491.02,642.93h-20.16v-48.18h-41.9v48.18h-20.18v-100.09h20.18v38.47h41.9v-38.19h20.16v99.81ZM509.53,591.45c0-28.02,21.17-50.33,49.91-50.33s49.93,22.31,49.93,50.33c0,29.89-19.17,53.21-49.93,53.21s-49.91-23.32-49.91-53.21M587.9,591.45c0-18.43-8.43-36.02-28.46-36.02s-28.46,17.59-28.46,36.02,7.44,38.91,28.46,38.91,28.46-19.74,28.46-38.91M671.24,560.29c-4.42-3.01-10.28-5.73-16.16-5.73-8.43,0-13,4.72-13,10.58,0,6.59,7,11.59,18.73,20.9,13.44,10.72,20.58,19.15,20.58,31.45s-12.01,27.18-34.61,27.18c-10.43,0-22.01-3.14-29.45-10.01l7.29-11.44c5.29,3.86,11.44,8.01,20.45,8.01,8.3,0,15.59-4.44,15.59-13.88,0-11.02-13.44-18.31-21.45-24.6-9.73-7.86-17.88-14.01-17.88-27.3s13.59-24.31,31.75-24.31c11.44,0,20.6,4.15,25.32,8.72l-7.16,10.45ZM775.48,542.85c40.74,0,54.77,23.01,54.77,47.19,0,33.01-21.17,52.9-56.65,52.9h-32.74v-100.09h34.61ZM761.03,629.49h12.3c23.03,0,35.46-11.73,35.46-39.61,0-20.73-12.01-33.6-33.18-33.6h-14.58v73.21ZM1124.35,556.29h-39.75v27.45h32.89v13.44h-32.89v32.32h39.75v13.44h-59.91v-100.09h59.91v13.44ZM907.7,556.29h-39.75v27.45h32.89v13.44h-32.89v32.32h39.75v13.44h-59.91v-100.09h59.91v13.44ZM1228.82,642.93h-14.6c-19.15-23.03-38.32-45.9-57.2-71.79h-.29v71.79h-16.16v-100.11h14.74c19.15,22.88,38.17,45.63,57.05,71.37h.29v-71.37h16.16v100.11ZM1273.75,642.93v-86.65h-30.88v-13.46h81.95v13.46h-30.9v86.65h-20.16ZM1327.79,591.45c0-28.02,21.17-50.33,49.91-50.33s49.91,22.31,49.91,50.33c0,29.89-19.17,53.21-49.91,53.21s-49.91-23.32-49.91-53.21M1406.16,591.45c0-18.43-8.45-36.02-28.46-36.02s-28.46,17.59-28.46,36.02,7.44,38.91,28.46,38.91,28.46-19.74,28.46-38.91M1031.07,542.85l-27.6,77.47-27.58-77.47h-19.48l37.71,100.09h16.45l40.03-100.09h-19.54ZM196.43,420.61h-21.46v19.32h21.02v8.61h-21.02v27.01h-12.78v-63.44h34.24v8.5ZM257.17,475.55h-13.7l-5.89-17.31h-22.82l-6.63,17.31h-10.52l25.94-63.44h9.77l23.85,63.44ZM235.05,450.52l-8.34-24.46-9.25,24.46h17.59ZM313.91,416.1l-4.09,7.88c-4.65-2.66-9.22-3.98-13.68-3.98-6.83,0-12.36,2.17-16.58,6.48-4.24,4.31-6.35,10.04-6.35,17.17s2.13,12.69,6.39,17.22c4.26,4.53,9.93,6.79,17,6.79,4.7,0,9.18-1.14,13.4-3.43l3.36,7.78c-5.62,3.08-11.84,4.63-18.67,4.63-10.21,0-18.62-3.01-25.19-9.07-6.59-6.04-9.88-13.83-9.88-23.37s3.34-17.46,10.06-23.74c6.7-6.3,15.17-9.44,25.38-9.44,6.59,0,12.87,1.71,18.86,5.09M374.79,447.62c0,4.96-.28,8.74-.81,11.35-.55,2.35-1.54,4.7-2.99,7.07-4.41,7.05-11.81,10.59-22.2,10.59s-17.98-3.54-22.22-10.59c-1.51-2.55-2.46-5.64-2.88-9.25-.26-1.87-.37-5.16-.37-9.88v-34.79h12.78v33.71c0,4.09.09,6.94.26,8.52.37,3.32,1.19,5.99,2.46,7.97,2.22,3.56,5.77,5.34,10.65,5.34,6.26,0,10.45-2.77,12.56-8.34.96-2.53,1.43-7.12,1.43-13.77v-33.44h11.33v35.51ZM427,475.55h-37.88v-63.44h12.78v54.92h25.1v8.52ZM491.98,442.1c0,13.29-5.16,22.84-15.48,28.64-5.75,3.2-13.66,4.81-23.76,4.81h-17.5v-63.44h17.5c5.99,0,10.7.35,14.14,1.08,2.72.53,5.66,1.6,8.8,3.16,10.87,5.4,16.31,13.97,16.31,25.74M478.39,442.74c0-9.68-3.21-16.19-9.68-19.57-3.25-1.69-8.3-2.55-15.17-2.55h-5.51v46.42h5.14c4.7,0,8.34-.35,10.92-1.05,2.59-.7,4.94-1.93,7.05-3.67,4.83-4.11,7.23-10.63,7.23-19.57M553.43,475.55h-13.68l-5.89-17.31h-22.84l-6.61,17.31h-10.52l25.93-63.44h9.79l23.83,63.44ZM531.33,450.52l-8.34-24.46-9.25,24.46h17.59ZM617.96,442.1c0,13.29-5.16,22.84-15.48,28.64-5.75,3.2-13.66,4.81-23.76,4.81h-17.48v-63.44h17.48c5.99,0,10.7.35,14.14,1.08,2.72.53,5.66,1.6,8.8,3.16,10.87,5.4,16.31,13.97,16.31,25.74M604.37,442.74c0-9.68-3.21-16.19-9.66-19.57-3.27-1.69-8.32-2.55-15.19-2.55h-5.51v46.42h5.14c4.7,0,8.35-.35,10.93-1.05,2.61-.7,4.94-1.93,7.07-3.67,4.81-4.11,7.22-10.63,7.22-19.57M667.99,475.55h-38.06v-63.44h34.26v8.5h-21.48v17.31h21.02v8.7h-21.02v20.4h25.28v8.52ZM1052.3,267.48c14.58-16.86,48.95-44.09,61.44-51.5.64-.39.31-1.4-.44-1.3-16.18,1.87-41.5,17.02-60.37,27.54-47.34,26.37-110,61.25-166.59,55.91-8.02-.75-15.92-2.31-23.65-4.83-10.78-3.51-20.6-9.2-29.75-16.34-1.76-1.38-4.31.22-3.78,2.41,8.46,35,24.75,63.55,43.48,85,1.98,2.26,4.65,3.82,7.58,4.37,6.1,1.1,12.19,1.63,18.36,1.49,57.78-1.16,108.74-55.1,153.72-102.73"/>
  </g>
</svg>